<?xml version="1.0" encoding="UTF-8" standalone="no"?>
<!-- Created with Inkscape (http://www.inkscape.org/) -->

<svg
   width="210mm"
   height="297mm"
   viewBox="0 0 210 297"
   version="1.1"
   id="svg1"
   inkscape:version="1.3.2 (091e20e, 2023-11-25, custom)"
   sodipodi:docname="logoalip.svg"
   inkscape:export-filename="drawingg.png"
   inkscape:export-xdpi="96"
   inkscape:export-ydpi="96"
   xmlns:inkscape="http://www.inkscape.org/namespaces/inkscape"
   xmlns:sodipodi="http://sodipodi.sourceforge.net/DTD/sodipodi-0.dtd"
   xmlns="http://www.w3.org/2000/svg"
   xmlns:svg="http://www.w3.org/2000/svg">
  <sodipodi:namedview
     id="namedview1"
     pagecolor="#000000"
     bordercolor="#000000"
     borderopacity="0.25"
     inkscape:showpageshadow="2"
     inkscape:pageopacity="0.0"
     inkscape:pagecheckerboard="0"
     inkscape:deskcolor="#d1d1d1"
     inkscape:document-units="px"
     showborder="false"
     showguides="true"
     inkscape:zoom="1"
     inkscape:cx="316.5"
     inkscape:cy="531.5"
     inkscape:window-width="1920"
     inkscape:window-height="991"
     inkscape:window-x="-9"
     inkscape:window-y="-9"
     inkscape:window-maximized="1"
     inkscape:current-layer="layer1"
     inkscape:export-bgcolor="#00cd3400" />
  <defs
     id="defs1">
    <linearGradient
       id="swatch19"
       inkscape:swatch="solid">
      <stop
         style="stop-color:#00535b;stop-opacity:0.35313505;"
         offset="0"
         id="stop19" />
    </linearGradient>
  </defs>
  <g
     inkscape:label="Layer 1"
     inkscape:groupmode="layer"
     id="layer1">
    <path
       id="text1"
       style="font-size:43.7409px;font-family:'Mouldy Cheese';-inkscape-font-specification:'Mouldy Cheese, Normal';opacity:1;fill:#00a8e8;fill-opacity:1;stroke-width:0.400049;stroke-linecap:round;stroke-linejoin:round"
       d="m 84.606206,71.936538 c -3.654753,0.441394 -6.597013,3.738998 -6.597013,7.393751 v 0.409794 c 0,3.654754 2.94226,6.24167 6.597013,5.800276 l 20.710364,-2.501244 16.21245,-1.95802 c 3.6069,-0.435614 6.51072,2.117502 6.51072,5.724397 v 0.1726 c 0,3.606895 -2.90382,6.861415 -6.51072,7.297029 l -20.6406,2.492819 -9.264554,1.118904 c -2.774906,0.335132 -5.008997,2.839046 -5.008997,5.613946 v 3.17603 c 0,2.77491 2.234091,4.73919 5.008997,4.40405 l 4.828131,-0.5831 13.243633,-1.59947 c 3.65476,-0.44139 6.59702,2.14553 6.59702,5.80027 0,3.65476 -2.94226,6.95237 -6.59702,7.39376 l -17.734834,2.14188 -30.517517,3.68568 -17.050122,2.05919 c -3.654754,0.44139 -6.597014,3.73899 -6.597014,7.39375 0,3.65476 2.94226,6.24166 6.597014,5.80027 l 3.094901,-0.37378 39.973271,-4.82768 14.146941,-1.70856 c 3.58708,-0.43322 6.47506,2.10597 6.47506,5.69305 v 0.24443 c 0,3.58708 -2.88798,6.82333 -6.47506,7.25655 l -18.819007,2.27282 -17.021184,2.05569 c -2.842587,0.34331 -5.130953,2.90805 -5.130953,5.75063 v 2.93212 c 0,2.84259 2.288366,4.85459 5.130953,4.51128 l 12.073165,-1.4581 8.530229,-1.03022 c 3.654751,-0.44139 6.597013,2.14551 6.597013,5.80027 0,3.65476 -2.942262,6.95236 -6.597013,7.39375 l -13.7604,1.66188 -33.526119,4.04903 -14.679725,1.77291 c -3.654753,0.4414 -6.597013,3.73953 -6.597013,7.39427 0,3.65476 2.94226,6.24168 6.597013,5.80028 l 15.245581,-1.84125 27.454655,-3.31577 15.644007,-1.88936 c 3.157096,-0.38129 5.698877,1.85299 5.698877,5.01009 v 1.79679 c 0,3.15709 -2.541781,6.00585 -5.698877,6.38714 l -16.659965,2.01206 -24.178886,2.92015 c -2.842588,0.34331 -5.130953,2.90805 -5.130953,5.75064 v 2.93212 c 0,2.84258 2.288365,4.85458 5.130953,4.51127 l 46.171342,-5.57623 0.622184,-0.0751 c 0.219374,-0.0265 0.433979,-0.0704 0.645956,-0.12242 3.384535,-0.62132 6.057804,-2.02126 8.009844,-4.20903 2.31942,-2.47073 3.994153,-5.05674 5.025023,-7.75839 2.06173,-5.14555 3.67258,-9.59242 4.83226,-13.34045 1.28858,-3.8925 2.3841,-7.56852 3.28611,-11.02775 0.64427,-2.52602 2.19018,-4.0659 4.63847,-4.61938 1.15972,-0.2688 2.38408,-0.48068 3.67265,-0.6363 1.41743,-0.29994 2.96385,-0.55123 4.63899,-0.75354 l 7.73131,-0.93373 3.86592,-0.46689 c 1.28858,-0.15563 2.5124,-0.23893 3.67213,-0.25023 2.44827,-0.038 3.99472,1.12794 4.63899,3.49841 0.90203,3.24135 1.93312,6.66054 3.09283,10.25734 1.28858,3.58123 2.96331,7.69567 5.02502,12.34323 1.03087,2.45265 2.64172,4.64185 4.83226,6.5679 2.31945,1.91042 5.47668,2.62467 9.47126,2.14223 2.70601,-0.32681 5.99158,-1.49657 9.85728,-3.50973 3.73685,-1.99758 6.50762,-4.07188 8.31164,-6.22261 1.93284,-2.29517 3.2211,-4.51245 3.86539,-6.65199 0.77318,-2.28398 1.03085,-4.44125 0.77308,-6.47178 -0.2577,-2.03058 -0.77303,-3.83681 -1.54616,-5.41862 -7.73145,-17.10622 -14.68957,-34.30609 -20.87469,-51.59912 -6.05626,-17.30855 -12.30583,-35.044878 -18.74873,-53.208768 -1.03086,-2.839213 -3.35023,-5.007308 -6.95823,-6.504409 -1.70208,-0.706266 -3.61238,-1.164609 -5.71593,-1.392232 -0.94397,-0.405767 -2.02897,-0.57196 -3.18688,-0.432117 z M 46.642115,103.31941 c -2.774905,0.33513 -5.008997,2.83904 -5.008997,5.61395 v 3.17603 c 0,2.77491 2.234092,4.73918 5.008997,4.40405 l 14.801164,-1.78758 18.450553,-2.22832 c 2.774905,-0.33513 5.008997,-2.83904 5.008997,-5.61395 v -3.17603 c 0,-2.77491 -2.234092,-4.739182 -5.008997,-4.40405 l -7.371126,0.89023 z m 80.290195,5.2552 c 0.51535,-0.0622 0.90236,0.40632 1.16014,1.40605 0.51544,1.74174 1.09516,3.9911 1.73943,6.74815 0.64427,2.62818 1.2884,5.45 1.93269,8.46477 0.64427,3.01474 1.2884,6.0937 1.9327,9.23732 0.64428,3.14365 1.2245,6.16639 1.73995,9.06785 0.38654,2.40158 -0.58014,3.74219 -2.89957,4.02231 l -1.35289,0.16339 -7.73131,0.93373 -2.12648,0.25682 c -2.31944,0.28013 -3.28564,-0.89145 -2.89905,-3.51526 0.64427,-3.04153 1.224,-6.20437 1.73943,-9.48807 0.64431,-3.29923 1.28844,-6.53377 1.9327,-9.70415 0.64432,-3.1704 1.28894,-6.14785 1.93321,-8.93166 0.64429,-2.78381 1.22401,-5.1088 1.73943,-6.97504 0.25771,-1.06198 0.64416,-1.62395 1.15962,-1.68621 z M 36.54144,157.3154 c -2.774907,0.33513 -5.00848,2.83898 -5.00848,5.61389 v 3.17655 c 0,2.7749 2.233573,4.73872 5.00848,4.40359 l 2.543514,-0.30719 14.301452,-1.72722 c 2.774905,-0.33513 5.008997,-2.83853 5.008997,-5.61343 v -3.17655 c 0,-2.77491 -2.234092,-4.73918 -5.008997,-4.40405 l -5.898348,0.71236 z m -13.559897,54.41428 c -2.774905,0.33514 -5.008996,2.83854 -5.008996,5.61343 v 3.17655 c 0,2.77491 2.234091,4.73919 5.008996,4.40405 l 6.835759,-0.82557 c 2.774905,-0.33513 5.008997,-2.83904 5.008997,-5.61395 v -3.17655 c 0,-2.77489 -2.234092,-4.73866 -5.008997,-4.40353 z" />
  </g>
</svg>
